<mxfile host="Electron" agent="Mozilla/5.0 (Windows NT 10.0; Win64; x64) AppleWebKit/537.36 (KHTML, like Gecko) draw.io/26.2.2 Chrome/134.0.6998.178 Electron/35.1.2 Safari/537.36" version="26.2.2">
  <diagram id="VduSrOBBpiw6H6xTxate" name="ページ遷移図">
    <mxGraphModel dx="479" dy="546" grid="1" gridSize="10" guides="0" tooltips="1" connect="1" arrows="1" fold="1" page="1" pageScale="1" pageWidth="1169" pageHeight="827" math="0" shadow="0">
      <root>
        <mxCell id="0" />
        <mxCell id="1" parent="0" />
        <mxCell id="D4h3zXW1V7j9RZv_oUb7-7" style="edgeStyle=elbowEdgeStyle;rounded=0;orthogonalLoop=1;jettySize=auto;html=1;fontColor=#000000;startArrow=classic;startFill=1;endSize=4;strokeWidth=2;endArrow=classic;endFill=1;startSize=4;" parent="1" source="D4h3zXW1V7j9RZv_oUb7-1" target="D4h3zXW1V7j9RZv_oUb7-3" edge="1">
          <mxGeometry relative="1" as="geometry">
            <mxPoint x="230" y="65" as="targetPoint" />
          </mxGeometry>
        </mxCell>
        <mxCell id="D4h3zXW1V7j9RZv_oUb7-1" value="&lt;span style=&quot;font-weight: 700&quot;&gt;トップ&lt;/span&gt;" style="swimlane;fontStyle=0;childLayout=stackLayout;horizontal=1;startSize=30;horizontalStack=0;resizeParent=1;resizeParentMax=0;resizeLast=0;collapsible=1;marginBottom=0;whiteSpace=wrap;html=1;fillColor=#dae8fc;strokeColor=#6c8ebf;" parent="1" vertex="1">
          <mxGeometry x="60" y="110" width="160" height="70" as="geometry" />
        </mxCell>
        <mxCell id="D4h3zXW1V7j9RZv_oUb7-2" value="・各ページへのリンク" style="text;strokeColor=none;fillColor=none;align=left;verticalAlign=middle;spacingLeft=4;spacingRight=4;overflow=hidden;points=[[0,0.5],[1,0.5]];portConstraint=eastwest;rotatable=0;whiteSpace=wrap;html=1;" parent="D4h3zXW1V7j9RZv_oUb7-1" vertex="1">
          <mxGeometry y="30" width="160" height="40" as="geometry" />
        </mxCell>
        <mxCell id="D4h3zXW1V7j9RZv_oUb7-3" value="&lt;span style=&quot;font-weight: 700;&quot;&gt;入手記録&lt;/span&gt;&lt;span style=&quot;font-weight: 700; background-color: transparent; color: light-dark(rgb(0, 0, 0), rgb(255, 255, 255));&quot;&gt;一覧&lt;/span&gt;" style="swimlane;fontStyle=0;childLayout=stackLayout;horizontal=1;startSize=30;horizontalStack=0;resizeParent=1;resizeParentMax=0;resizeLast=0;collapsible=1;marginBottom=0;whiteSpace=wrap;html=1;fillColor=#fff2cc;strokeColor=#d6b656;" parent="1" vertex="1">
          <mxGeometry x="250" y="90" width="160" height="110" as="geometry" />
        </mxCell>
        <mxCell id="D4h3zXW1V7j9RZv_oUb7-4" value="&lt;div&gt;&lt;span style=&quot;background-color: transparent; color: light-dark(rgb(0, 0, 0), rgb(255, 255, 255));&quot;&gt;・新規記録作成ボタン&lt;/span&gt;&lt;/div&gt;&lt;div&gt;・入手記録一覧表&lt;br&gt;（記録編集ボタン）&lt;br&gt;・購入統計情報&lt;br&gt;（記録件数など）&lt;/div&gt;" style="text;strokeColor=none;fillColor=none;align=left;verticalAlign=middle;spacingLeft=4;spacingRight=4;overflow=hidden;points=[[0,0.5],[1,0.5]];portConstraint=eastwest;rotatable=0;whiteSpace=wrap;html=1;" parent="D4h3zXW1V7j9RZv_oUb7-3" vertex="1">
          <mxGeometry y="30" width="160" height="80" as="geometry" />
        </mxCell>
        <mxCell id="D4h3zXW1V7j9RZv_oUb7-13" style="edgeStyle=elbowEdgeStyle;shape=connector;rounded=0;orthogonalLoop=1;jettySize=auto;html=1;labelBackgroundColor=default;fontFamily=Helvetica;fontSize=11;fontColor=#000000;startArrow=classic;startFill=1;endArrow=classic;endFill=1;endSize=4;strokeColor=default;strokeWidth=2;startSize=4;" parent="1" source="D4h3zXW1V7j9RZv_oUb7-5" target="2i71XHWrsO8PCq-z-BHj-1" edge="1">
          <mxGeometry relative="1" as="geometry" />
        </mxCell>
        <mxCell id="D4h3zXW1V7j9RZv_oUb7-5" value="&lt;span style=&quot;font-weight: 700;&quot;&gt;書籍一覧&lt;/span&gt;" style="swimlane;fontStyle=0;childLayout=stackLayout;horizontal=1;startSize=30;horizontalStack=0;resizeParent=1;resizeParentMax=0;resizeLast=0;collapsible=1;marginBottom=0;whiteSpace=wrap;html=1;fillColor=#d5e8d4;strokeColor=#82b366;" parent="1" vertex="1">
          <mxGeometry x="250" y="330" width="160" height="80" as="geometry" />
        </mxCell>
        <mxCell id="D4h3zXW1V7j9RZv_oUb7-6" value="&lt;div&gt;・新規書籍追加ボタン&lt;/div&gt;&lt;div&gt;・書籍一覧表&lt;br&gt;（情報編集ボタン）&lt;/div&gt;" style="text;strokeColor=none;fillColor=none;align=left;verticalAlign=middle;spacingLeft=4;spacingRight=4;overflow=hidden;points=[[0,0.5],[1,0.5]];portConstraint=eastwest;rotatable=0;whiteSpace=wrap;html=1;" parent="D4h3zXW1V7j9RZv_oUb7-5" vertex="1">
          <mxGeometry y="30" width="160" height="50" as="geometry" />
        </mxCell>
        <mxCell id="D4h3zXW1V7j9RZv_oUb7-9" style="edgeStyle=elbowEdgeStyle;rounded=0;orthogonalLoop=1;jettySize=auto;html=1;fontColor=#000000;startArrow=classic;startFill=1;endSize=4;strokeWidth=2;endArrow=classic;endFill=1;startSize=4;" parent="1" source="D4h3zXW1V7j9RZv_oUb7-1" target="D4h3zXW1V7j9RZv_oUb7-5" edge="1">
          <mxGeometry relative="1" as="geometry">
            <mxPoint x="200" y="155" as="sourcePoint" />
            <mxPoint x="240" y="170" as="targetPoint" />
          </mxGeometry>
        </mxCell>
        <mxCell id="D4h3zXW1V7j9RZv_oUb7-10" value="&lt;b&gt;書籍情報編集画面&lt;/b&gt;" style="swimlane;fontStyle=0;childLayout=stackLayout;horizontal=1;startSize=30;horizontalStack=0;resizeParent=1;resizeParentMax=0;resizeLast=0;collapsible=1;marginBottom=0;whiteSpace=wrap;html=1;fillColor=#d5e8d4;strokeColor=#82b366;" parent="1" vertex="1">
          <mxGeometry x="450" y="340" width="160" height="60" as="geometry" />
        </mxCell>
        <mxCell id="D4h3zXW1V7j9RZv_oUb7-11" value="・書籍情報入力フォーム" style="text;strokeColor=none;fillColor=none;align=left;verticalAlign=middle;spacingLeft=4;spacingRight=4;overflow=hidden;points=[[0,0.5],[1,0.5]];portConstraint=eastwest;rotatable=0;whiteSpace=wrap;html=1;" parent="D4h3zXW1V7j9RZv_oUb7-10" vertex="1">
          <mxGeometry y="30" width="160" height="30" as="geometry" />
        </mxCell>
        <mxCell id="2i71XHWrsO8PCq-z-BHj-9" style="edgeStyle=elbowEdgeStyle;shape=connector;rounded=0;orthogonalLoop=1;jettySize=auto;html=1;labelBackgroundColor=default;fontFamily=Helvetica;fontSize=11;fontColor=#000000;startArrow=classic;startFill=1;endArrow=classic;endFill=1;endSize=4;strokeColor=default;strokeWidth=2;startSize=4;" parent="1" source="D4h3zXW1V7j9RZv_oUb7-14" target="2i71XHWrsO8PCq-z-BHj-6" edge="1">
          <mxGeometry relative="1" as="geometry" />
        </mxCell>
        <mxCell id="D4h3zXW1V7j9RZv_oUb7-14" value="&lt;b&gt;入手記録詳細&lt;/b&gt;" style="swimlane;fontStyle=0;childLayout=stackLayout;horizontal=1;startSize=30;horizontalStack=0;resizeParent=1;resizeParentMax=0;resizeLast=0;collapsible=1;marginBottom=0;whiteSpace=wrap;html=1;fillColor=#fff2cc;strokeColor=#d6b656;" parent="1" vertex="1">
          <mxGeometry x="450" y="225" width="160" height="90" as="geometry" />
        </mxCell>
        <mxCell id="D4h3zXW1V7j9RZv_oUb7-15" value="&lt;div&gt;&lt;span&gt;・領収書画像表示&lt;/span&gt;&lt;br&gt;&lt;/div&gt;&lt;div&gt;&lt;span&gt;・商品一覧&lt;/span&gt;&lt;/div&gt;&lt;div&gt;・情報編集ボタン&lt;/div&gt;" style="text;strokeColor=none;fillColor=none;align=left;verticalAlign=middle;spacingLeft=4;spacingRight=4;overflow=hidden;points=[[0,0.5],[1,0.5]];portConstraint=eastwest;rotatable=0;whiteSpace=wrap;html=1;" parent="D4h3zXW1V7j9RZv_oUb7-14" vertex="1">
          <mxGeometry y="30" width="160" height="60" as="geometry" />
        </mxCell>
        <mxCell id="D4h3zXW1V7j9RZv_oUb7-16" style="edgeStyle=elbowEdgeStyle;shape=connector;rounded=0;orthogonalLoop=1;jettySize=auto;html=1;labelBackgroundColor=default;fontFamily=Helvetica;fontSize=11;fontColor=#000000;startArrow=classic;startFill=1;endArrow=classic;endFill=1;endSize=4;strokeColor=default;strokeWidth=2;startSize=4;" parent="1" source="D4h3zXW1V7j9RZv_oUb7-3" target="D4h3zXW1V7j9RZv_oUb7-14" edge="1">
          <mxGeometry relative="1" as="geometry" />
        </mxCell>
        <mxCell id="2i71XHWrsO8PCq-z-BHj-3" style="edgeStyle=elbowEdgeStyle;shape=connector;rounded=0;orthogonalLoop=1;jettySize=auto;html=1;labelBackgroundColor=default;fontFamily=Helvetica;fontSize=11;fontColor=#000000;startArrow=classic;startFill=1;endArrow=classic;endFill=1;endSize=4;strokeColor=default;strokeWidth=2;startSize=4;" parent="1" source="2i71XHWrsO8PCq-z-BHj-1" target="D4h3zXW1V7j9RZv_oUb7-10" edge="1">
          <mxGeometry relative="1" as="geometry" />
        </mxCell>
        <mxCell id="2i71XHWrsO8PCq-z-BHj-1" value="&lt;span style=&quot;font-weight: 700&quot;&gt;書籍詳細&lt;/span&gt;" style="swimlane;fontStyle=0;childLayout=stackLayout;horizontal=1;startSize=30;horizontalStack=0;resizeParent=1;resizeParentMax=0;resizeLast=0;collapsible=1;marginBottom=0;whiteSpace=wrap;html=1;fillColor=#d5e8d4;strokeColor=#82b366;" parent="1" vertex="1">
          <mxGeometry x="450" y="430" width="160" height="70" as="geometry" />
        </mxCell>
        <mxCell id="2i71XHWrsO8PCq-z-BHj-2" value="・書籍の詳細情報&lt;br&gt;・情報編集ボタン" style="text;strokeColor=none;fillColor=none;align=left;verticalAlign=middle;spacingLeft=4;spacingRight=4;overflow=hidden;points=[[0,0.5],[1,0.5]];portConstraint=eastwest;rotatable=0;whiteSpace=wrap;html=1;" parent="2i71XHWrsO8PCq-z-BHj-1" vertex="1">
          <mxGeometry y="30" width="160" height="40" as="geometry" />
        </mxCell>
        <mxCell id="2i71XHWrsO8PCq-z-BHj-6" value="&lt;b&gt;入手記録入力画面&lt;/b&gt;" style="swimlane;fontStyle=0;childLayout=stackLayout;horizontal=1;startSize=30;horizontalStack=0;resizeParent=1;resizeParentMax=0;resizeLast=0;collapsible=1;marginBottom=0;whiteSpace=wrap;html=1;fillColor=#fff2cc;strokeColor=#d6b656;" parent="1" vertex="1">
          <mxGeometry x="450" y="95" width="160" height="100" as="geometry" />
        </mxCell>
        <mxCell id="2i71XHWrsO8PCq-z-BHj-7" value="・情報入力フォーム&lt;br&gt;・領収書画像アップロードボタン&lt;br&gt;・領収書画像表示" style="text;strokeColor=none;fillColor=none;align=left;verticalAlign=middle;spacingLeft=4;spacingRight=4;overflow=hidden;points=[[0,0.5],[1,0.5]];portConstraint=eastwest;rotatable=0;whiteSpace=wrap;html=1;" parent="2i71XHWrsO8PCq-z-BHj-6" vertex="1">
          <mxGeometry y="30" width="160" height="70" as="geometry" />
        </mxCell>
        <mxCell id="wOvDw5t79sHiPHU0ZISK-1" value="&lt;span style=&quot;font-weight: 700&quot;&gt;統計&lt;/span&gt;" style="swimlane;fontStyle=0;childLayout=stackLayout;horizontal=1;startSize=30;horizontalStack=0;resizeParent=1;resizeParentMax=0;resizeLast=0;collapsible=1;marginBottom=0;whiteSpace=wrap;html=1;fillColor=#f5f5f5;strokeColor=#666666;fontColor=#333333;" parent="1" vertex="1">
          <mxGeometry x="250" y="510" width="160" height="80" as="geometry" />
        </mxCell>
        <mxCell id="wOvDw5t79sHiPHU0ZISK-2" value="・購入履歴の統計&lt;br&gt;（総支出、購入点数、書籍データ数など）" style="text;strokeColor=none;fillColor=none;align=left;verticalAlign=middle;spacingLeft=4;spacingRight=4;overflow=hidden;points=[[0,0.5],[1,0.5]];portConstraint=eastwest;rotatable=0;whiteSpace=wrap;html=1;" parent="wOvDw5t79sHiPHU0ZISK-1" vertex="1">
          <mxGeometry y="30" width="160" height="50" as="geometry" />
        </mxCell>
        <mxCell id="wOvDw5t79sHiPHU0ZISK-4" style="edgeStyle=elbowEdgeStyle;rounded=0;orthogonalLoop=1;jettySize=auto;html=1;fontColor=#000000;startArrow=classic;startFill=1;endSize=4;strokeWidth=2;endArrow=classic;endFill=1;startSize=4;" parent="1" source="D4h3zXW1V7j9RZv_oUb7-1" target="wOvDw5t79sHiPHU0ZISK-1" edge="1">
          <mxGeometry relative="1" as="geometry">
            <mxPoint x="220" y="155" as="sourcePoint" />
            <mxPoint x="260" y="265" as="targetPoint" />
          </mxGeometry>
        </mxCell>
        <mxCell id="wOvDw5t79sHiPHU0ZISK-6" style="edgeStyle=elbowEdgeStyle;shape=connector;rounded=0;orthogonalLoop=1;jettySize=auto;html=1;labelBackgroundColor=default;fontFamily=Helvetica;fontSize=11;fontColor=#000000;startArrow=classic;startFill=1;endArrow=classic;endFill=1;endSize=4;strokeColor=default;strokeWidth=2;startSize=4;" parent="1" source="D4h3zXW1V7j9RZv_oUb7-3" target="2i71XHWrsO8PCq-z-BHj-6" edge="1">
          <mxGeometry relative="1" as="geometry">
            <mxPoint x="420" y="160" as="sourcePoint" />
            <mxPoint x="450" y="160" as="targetPoint" />
          </mxGeometry>
        </mxCell>
        <mxCell id="wOvDw5t79sHiPHU0ZISK-7" style="edgeStyle=elbowEdgeStyle;shape=connector;rounded=0;orthogonalLoop=1;jettySize=auto;html=1;labelBackgroundColor=default;fontFamily=Helvetica;fontSize=11;fontColor=#000000;startArrow=classic;startFill=1;endArrow=classic;endFill=1;endSize=4;strokeColor=default;strokeWidth=2;startSize=4;" parent="1" source="D4h3zXW1V7j9RZv_oUb7-5" target="D4h3zXW1V7j9RZv_oUb7-10" edge="1">
          <mxGeometry relative="1" as="geometry">
            <mxPoint x="420" y="375" as="sourcePoint" />
            <mxPoint x="460" y="375" as="targetPoint" />
          </mxGeometry>
        </mxCell>
        <mxCell id="tWWhZfz3c58PazhRuaX7-2" style="edgeStyle=elbowEdgeStyle;shape=connector;rounded=0;orthogonalLoop=1;jettySize=auto;html=1;labelBackgroundColor=default;fontFamily=Helvetica;fontSize=11;fontColor=#000000;startArrow=classic;startFill=1;endArrow=classic;endFill=1;endSize=4;strokeColor=default;strokeWidth=2;startSize=4;" parent="1" source="2i71XHWrsO8PCq-z-BHj-1" target="D4h3zXW1V7j9RZv_oUb7-14" edge="1">
          <mxGeometry relative="1" as="geometry">
            <mxPoint x="420" y="380" as="sourcePoint" />
            <mxPoint x="630" y="240" as="targetPoint" />
            <Array as="points">
              <mxPoint x="630" y="373" />
            </Array>
          </mxGeometry>
        </mxCell>
        <mxCell id="dZLWlZ67j2zRTE7TXdTx-1" value="各ページとトップページとの間の遷移は省略する" style="text;html=1;align=center;verticalAlign=middle;whiteSpace=wrap;rounded=0;dashed=1;strokeColor=#999999;fillColor=none;fontColor=#333333;" vertex="1" parent="1">
          <mxGeometry x="60" y="210" width="140" height="60" as="geometry" />
        </mxCell>
      </root>
    </mxGraphModel>
  </diagram>
</mxfile>
